<?xml version="1.0" encoding="iso-8859-1"?>
<!-- Generator: Adobe Illustrator 18.1.1, SVG Export Plug-In . SVG Version: 6.00 Build 0)  -->
<svg version="1.1" id="Capa_1" xmlns="http://www.w3.org/2000/svg" xmlns:xlink="http://www.w3.org/1999/xlink" x="0px" y="0px"
	 viewBox="0 0 51.005 51.005" style="enable-background:new 0 0 51.005 51.005;" xml:space="preserve">
<g>
	<path style="fill:#010002;" d="M14.727,31.044l4.883,9.675c0.113,0.226,0.351,0.372,0.604,0.372h10.525
		c0.253,0,0.49-0.146,0.603-0.372l4.858-9.637c4.255-3.327,6.694-8.315,6.694-13.69C42.894,7.802,35.091,0,25.501,0
		C15.912,0,8.11,7.802,8.11,17.392C8.112,22.748,10.523,27.723,14.727,31.044z M25.503,1.351c8.845,0,16.041,7.196,16.041,16.041
		c0,5.01-2.292,9.644-6.29,12.716c-0.082,0.065-0.148,0.145-0.188,0.231l-4.742,9.401h-9.695l-4.763-9.439
		c-0.045-0.089-0.11-0.168-0.19-0.229c-3.948-3.065-6.213-7.687-6.213-12.68C9.464,8.547,16.66,1.351,25.503,1.351z"/>
	<path style="fill:#010002;" d="M20.882,45.034c-0.373,0-0.676,0.303-0.676,0.676c0,2.92,2.376,5.295,5.297,5.295
		c2.92,0,5.295-2.375,5.295-5.295c0-0.372-0.303-0.676-0.676-0.676H20.882z M25.503,49.654c-1.917,0-3.562-1.396-3.888-3.269h7.775
		C29.065,48.258,27.42,49.654,25.503,49.654z"/>
	<path style="fill:#010002;" d="M31.71,43.107c0-0.373-0.303-0.676-0.676-0.676H19.973c-0.373,0-0.676,0.303-0.676,0.676
		s0.303,0.675,0.676,0.675h11.061C31.407,43.782,31.71,43.479,31.71,43.107z"/>
</g>
<g>
</g>
<g>
</g>
<g>
</g>
<g>
</g>
<g>
</g>
<g>
</g>
<g>
</g>
<g>
</g>
<g>
</g>
<g>
</g>
<g>
</g>
<g>
</g>
<g>
</g>
<g>
</g>
<g>
</g>
</svg>
