<?xml version="1.0" encoding="iso-8859-1"?>
<!-- Generator: Adobe Illustrator 18.0.0, SVG Export Plug-In . SVG Version: 6.00 Build 0)  -->
<!DOCTYPE svg PUBLIC "-//W3C//DTD SVG 1.1//EN" "http://www.w3.org/Graphics/SVG/1.1/DTD/svg11.dtd">
<svg version="1.1" id="Capa_1" xmlns="http://www.w3.org/2000/svg" xmlns:xlink="http://www.w3.org/1999/xlink" x="0px" y="0px"
	 viewBox="0 0 268.658 268.658" style="enable-background:new 0 0 268.658 268.658;" xml:space="preserve">
<g>
	<g>
		<path style="fill:#1D1D1B;" d="M215.496,55.669c-11.088-41.148-45.675-58.261-86.493-55.354
			c-39.326,2.801-74.334,28.674-79.53,69.523c-2.439,19.173,2.305,39.213,13.183,55.202c5.384,7.914,12.492,14.259,19.02,21.173
			c13.346,14.135,19.796,28.788,19.661,48.042c-3.879,0.087-7.423,2.357-8.514,6.278c-0.837,3.008,0.134,7.72,3.012,9.518
			c-2.839,2.711-4.306,6.695-3.62,10.643c0.473,2.724,2.111,5.759,4.448,7.61c-5.868,8.093-2.933,14.365,4.696,18.712
			c-0.01,0.127-0.032,0.253,0.042,0.4c15.674,31.404,66.822,26.201,80.62-3.881c0.191-0.417,0.188-0.814,0.101-1.18
			c4.705-4.73,5.821-10.902,1.127-18.579c3.46-4.376,4.427-10.187,0.917-17.907c-0.004-0.01-0.012-0.014-0.016-0.023
			c1.518-2.916,1.67-6.357,0.435-9.458c-1.115-2.796-4.048-6.567-7.35-7.01c0.102-28.731,26.325-47.692,37.048-73.294
			C222.179,97.23,220.726,75.079,215.496,55.669z M104.039,248.37c17.972,8.193,54.433,7.947,72.132-1.697
			C160.212,270.753,122.342,270.781,104.039,248.37z M141.971,249.98c-5.639,0.288-11.332,0.041-16.957-0.33
			c-8.579-0.566-35.66-0.843-27.307-20.371c6.936,6.603,46.666,7.395,50.071,7.138c10.358-0.783,25.426-3.311,33.32-10.369
			C190.501,245.886,152.403,249.446,141.971,249.98z M181.146,221.595c-0.929-0.059-1.835,0.755-1.471,1.75
			c-8.56,8.769-29.842,10.024-38.075,10.214c-3.878,0.089-30.665-1.77-39.978-4.863c-0.017-0.239-0.128-0.483-0.372-0.703
			c-2.219-2.001-4.551-3.325-5.621-6.311c-1.26-3.516-0.323-6.842,1.688-9.714c8.344,9.402,29.352,7.612,39.842,7.169
			c14.305-0.604,35.215,1.51,44.853-10.822C184.177,213.879,183.523,218.212,181.146,221.595z M177.368,192.977
			c1.554,1,2.994,1.943,4.034,3.919c0.951,1.809,1.356,3.794,1.269,5.768c-0.361,0.066-0.711,0.278-0.977,0.684
			c-9.342,14.255-66.823,19.973-82.926,5.941c-0.025-0.095-0.009-0.188-0.061-0.283c-1.291-2.35-3.179-3.907-2.857-6.878
			c0.312-2.877,2.737-5.258,5.484-5.97c-0.015,0.51,0.021,0.985-0.003,1.503c-0.039,0.835,0.363,1.344,0.902,1.587
			c0.14,0.123,0.312,0.227,0.533,0.292c23.581,7.038,48.19,11.553,71.182,0.446c0.643,2.552,4.654,1.401,4.15-1.292
			C177.731,196.741,177.501,194.841,177.368,192.977z M173.354,196.286c-0.302-0.009-0.615,0.034-0.941,0.193
			c-21.892,10.75-44.659,5.499-67.372,0.826c5.331-43.07-36.818-57.435-48.19-94.112C40.288,49.777,82.713,5.844,134.783,4.381
			c23.467-0.659,48.036,4.979,63.086,24.314c14.338,18.423,19.582,45.638,16.693,68.469
			C209.863,134.309,168.705,157.295,173.354,196.286z"/>
		<path style="fill:#1D1D1B;" d="M174.177,193.41c-8.178,1.067-16.104,2.272-24.369,2.576c-0.716,0.026-0.714,1.075,0,1.111
			c8.037,0.405,16.774,0.109,24.622-1.823C175.439,195.025,175.256,193.269,174.177,193.41z"/>
		<path style="fill:#1D1D1B;" d="M172.483,186.958c-6.676,0.376-13.126,0.973-19.836,0.793c-0.667-0.018-0.625,0.931,0,1.009
			c6.46,0.803,13.633,1.008,20.037-0.307C173.519,188.281,173.339,186.91,172.483,186.958z"/>
		<path style="fill:#1D1D1B;" d="M175.813,178.579c-7.93,0.429-15.792,0.799-23.74,0.809c-0.598,0.001-0.586,0.882,0,0.924
			c7.855,0.555,15.89,0.654,23.74-0.006C176.907,180.214,176.934,178.518,175.813,178.579z"/>
		<path style="fill:#1D1D1B;" d="M179.228,170.508c-9.43,0.069-18.835,0.352-28.273,0.309c-0.579-0.003-0.54,0.801,0,0.872
			c9.177,1.2,19.071,1.527,28.273,0.426C180.226,171.996,180.292,170.5,179.228,170.508z"/>
		<path style="fill:#1D1D1B;" d="M178.067,159.928c-8.206-0.4-16.66-0.275-24.864,0.163c-0.759,0.04-0.761,1.139,0,1.18
			c8.204,0.438,16.656,0.563,24.864,0.162C179.034,161.386,179.036,159.976,178.067,159.928z"/>
		<path style="fill:#1D1D1B;" d="M188.243,152.738c-9.636-0.459-19.186-0.093-28.822-1.077c-0.589-0.061-0.734,0.958-0.141,1.041
			c9.43,1.323,19.46,2.562,28.963,1.507C189.167,154.106,189.208,152.784,188.243,152.738z"/>
		<path style="fill:#1D1D1B;" d="M193.92,141.125c-10.032,0.396-19.916,1.214-29.976,0.901c-0.641-0.02-0.636,0.958,0,0.992
			c9.961,0.522,20.253,0.827,30.156-0.567C194.855,142.345,194.673,141.095,193.92,141.125z"/>
		<path style="fill:#1D1D1B;" d="M198.437,131.967c-11.366-0.052-22.534,0.589-33.918-0.189c-0.659-0.046-0.629,0.933,0,1.009
			c11.027,1.34,22.86,2.326,33.918,0.873C199.48,133.523,199.561,131.973,198.437,131.967z"/>
		<path style="fill:#1D1D1B;" d="M205.19,122.017c-12.171-0.552-24.549-0.011-36.729,0.299c-0.65,0.017-0.652,0.993,0,1.009
			c12.178,0.31,24.558,0.852,36.729,0.299C206.224,123.577,206.226,122.064,205.19,122.017z"/>
		<path style="fill:#1D1D1B;" d="M210.286,112.025c-13.498,0.32-26.596,1.241-40.11-0.003c-0.502-0.046-0.627,0.821-0.119,0.89
			c13.178,1.798,27.248,2.876,40.419,0.524C211.279,113.292,211.085,112.006,210.286,112.025z"/>
		<path style="fill:#1D1D1B;" d="M213.069,100.185c-14.228,0.473-28.054,1.973-42.35,1.122c-0.784-0.047-0.77,1.148,0,1.214
			c13.881,1.193,28.831,2.078,42.589-0.573C214.304,101.756,214.074,100.152,213.069,100.185z"/>
		<path style="fill:#1D1D1B;" d="M215.093,88.974c-0.606-0.241-1.209-0.482-1.813-0.722c-0.463-0.184-0.887,0.289-0.891,0.729
			c-12.949,0.136-25.902,0.358-38.846,0.682c-0.746,0.019-0.75,1.156,0,1.163c13.76,0.139,27.525,0.182,41.285,0.106
			C216.021,90.926,216.091,89.371,215.093,88.974z"/>
		<path style="fill:#1D1D1B;" d="M214.231,79.675c-15.274-1.148-31.045-0.202-46.344,0.395c-0.7,0.027-0.707,1.091,0,1.094
			c15.372,0.074,31.002,0.935,46.344,0.135C215.282,81.244,215.271,79.752,214.231,79.675z"/>
		<path style="fill:#1D1D1B;" d="M214.231,69.415c-14.693-0.175-29.378,0.221-44.076-0.129c-0.542-0.013-0.536,0.809,0,0.838
			c14.635,0.79,29.424,1.548,44.076,0.95C215.294,71.031,215.303,69.429,214.231,69.415z"/>
		<path style="fill:#1D1D1B;" d="M212.749,61.277c-14.517-2.098-30.202-2.246-44.858-2.178c-0.665,0.003-0.631,0.939,0,1.009
			c14.515,1.611,30.07,3.15,44.666,2.597C213.33,62.675,213.597,61.399,212.749,61.277z"/>
		<path style="fill:#1D1D1B;" d="M208.889,51.784c-2.551,2.366-16.847-0.812-20.584-1.131c-7.538-0.645-15.082-1.247-22.623-1.848
			c-0.743-0.059-0.72,1.065,0,1.145c8.078,0.901,16.156,1.796,24.239,2.65c6.046,0.639,13.334,2.649,19.333,1.671
			c0.376-0.061,0.661-0.428,0.768-0.767c0.094-0.299,0.189-0.597,0.283-0.897C210.569,51.768,209.482,51.234,208.889,51.784z"/>
		<path style="fill:#1D1D1B;" d="M208.025,42.243c-13.826-0.383-27.473-0.496-41.255-1.927c-0.579-0.06-0.721,0.943-0.139,1.025
			c13.606,1.898,27.648,3.316,41.394,2.629C209.131,43.915,209.142,42.274,208.025,42.243z"/>
		<path style="fill:#1D1D1B;" d="M201.818,31.6c-11.313-0.81-22.595-0.471-33.927-1.658c-0.893-0.093-1.112,1.451-0.214,1.579
			c11.017,1.569,23.058,3.029,34.141,1.653C202.806,33.05,202.849,31.673,201.818,31.6z"/>
	</g>
	<path style="fill:#1D1D1B;" d="M194.561,25.141c-0.15-0.118-0.297-0.235-0.447-0.353c-0.515-0.405-1.079-0.334-1.473,0.19
		c-0.078,0.104-0.158,0.209-0.237,0.313c-0.184,0.246-0.139,0.509-0.021,0.747c-2.681-0.627-8.876-1.611-9.611-1.68
		c-3.236-0.308-6.473-0.615-9.711-0.923c-7.545-0.716-15.092-1.496-22.659-1.966c-0.625-0.039-0.784,1.017-0.15,1.108
		c9.189,1.315,18.439,2.217,27.664,3.231c4.035,0.443,13.509,3.771,16.646,0.779C194.928,26.239,194.99,25.478,194.561,25.141z"/>
	<path style="fill:#1D1D1B;" d="M188.225,16.758c-13.507-1.442-27.091-2.257-40.656-2.894c-0.916-0.043-0.905,1.359,0,1.419
		c13.587,0.911,27.11,2.271,40.656,3.629C189.607,19.052,189.589,16.904,188.225,16.758z"/>
</g>
<g>
</g>
<g>
</g>
<g>
</g>
<g>
</g>
<g>
</g>
<g>
</g>
<g>
</g>
<g>
</g>
<g>
</g>
<g>
</g>
<g>
</g>
<g>
</g>
<g>
</g>
<g>
</g>
<g>
</g>
</svg>
